<svg width="33" height="32" viewBox="0 0 33 32" fill="none" xmlns="http://www.w3.org/2000/svg">
<path d="M15.1726 4.09327C15.8257 2.77295 17.7125 2.77294 18.3655 4.09327L21.475 10.3802L28.428 11.3884C29.8882 11.6001 30.4712 13.3908 29.4147 14.4185L24.3834 19.3121L25.5711 26.2221C25.8205 27.6734 24.2941 28.7801 22.988 28.0949L16.7691 24.8324L10.5501 28.0949C9.2441 28.7801 7.71763 27.6734 7.96706 26.2221L9.15478 19.3121L4.12355 14.4185C3.06693 13.3908 3.64999 11.6001 5.1102 11.3884L12.0632 10.3802L15.1726 4.09327ZM16.7691 5.32547L13.791 11.3468C13.5317 11.8711 13.0304 12.2345 12.4505 12.3186L5.79128 13.2842L10.61 17.9711C11.0296 18.3793 11.221 18.9672 11.122 19.5436L9.98443 26.1617L15.9406 23.037C16.4593 22.7649 17.0788 22.7649 17.5975 23.037L23.5537 26.1617L22.4162 19.5436C22.3172 18.9672 22.5087 18.3793 22.9281 17.9711L27.7469 13.2842L21.0876 12.3186C20.5078 12.2345 20.0065 11.8711 19.7473 11.3468L16.7691 5.32547Z" fill="#979797"/>
</svg>
