<svg width="16" height="15" viewBox="0 0 16 15" fill="none" xmlns="http://www.w3.org/2000/svg">
<path d="M11.0767 9.43396H10.3767L10.1286 9.2024C10.997 8.2247 11.5198 6.9554 11.5198 5.57461C11.5198 2.49571 8.94114 0 5.75991 0C2.57867 0 0 2.49571 0 5.57461C0 8.65352 2.57867 11.1492 5.75991 11.1492C7.18659 11.1492 8.49808 10.6432 9.50827 9.80274L9.74753 10.0429V10.7204L14.1782 15L15.4986 13.7221L11.0767 9.43396ZM5.75991 9.43396C3.55342 9.43396 1.77228 7.71012 1.77228 5.57461C1.77228 3.43911 3.55342 1.71527 5.75991 1.71527C7.96639 1.71527 9.74753 3.43911 9.74753 5.57461C9.74753 7.71012 7.96639 9.43396 5.75991 9.43396Z" fill="white"/>
</svg>
