<svg width="40" height="40" viewBox="0 0 40 40" fill="none" xmlns="http://www.w3.org/2000/svg">
<path d="M20.0002 3C16.8296 3 13.8739 3.61198 11.3543 4.66667H3.3335C3.3335 4.66667 5.23454 6.99089 5.4624 9.15234C4.15381 10.6237 3.3335 12.5443 3.3335 14.6667C3.3335 19.2695 7.06396 23 11.6668 23C13.965 23 16.0483 22.069 17.5588 20.5586L20.0002 23L22.4416 20.5586C23.952 22.069 26.0353 23 28.3335 23C32.9364 23 36.6668 19.2695 36.6668 14.6667C36.6668 12.5443 35.8465 10.6237 34.5379 9.15234C34.7658 6.99089 36.6668 4.66667 36.6668 4.66667H28.6265C26.1134 3.61198 23.1642 3 20.0002 3ZM20.0002 6.33333C21.758 6.33333 23.4637 6.58724 25.0522 7.01042C22.0835 8.28646 20.0002 11.2292 20.0002 14.6667C20.0002 11.2161 17.9038 8.26042 14.9155 6.99089C16.5171 6.56771 18.2358 6.33333 20.0002 6.33333ZM11.6668 9.66667C14.4272 9.66667 16.6668 11.9062 16.6668 14.6667C16.6668 17.4271 14.4272 19.6667 11.6668 19.6667C8.90641 19.6667 6.66683 17.4271 6.66683 14.6667C6.66683 11.9062 8.90641 9.66667 11.6668 9.66667ZM28.3335 9.66667C31.0939 9.66667 33.3335 11.9062 33.3335 14.6667C33.3335 17.4271 31.0939 19.6667 28.3335 19.6667C25.5731 19.6667 23.3335 17.4271 23.3335 14.6667C23.3335 11.9062 25.5731 9.66667 28.3335 9.66667ZM11.6668 13C10.7489 13 10.0002 13.7487 10.0002 14.6667C10.0002 15.5846 10.7489 16.3333 11.6668 16.3333C12.5848 16.3333 13.3335 15.5846 13.3335 14.6667C13.3335 13.7487 12.5848 13 11.6668 13ZM28.3335 13C27.4155 13 26.6668 13.7487 26.6668 14.6667C26.6668 15.5846 27.4155 16.3333 28.3335 16.3333C29.2515 16.3333 30.0002 15.5846 30.0002 14.6667C30.0002 13.7487 29.2515 13 28.3335 13Z" fill="black"/>
</svg>
