<svg width="30" height="28" viewBox="0 0 30 28" fill="none" xmlns="http://www.w3.org/2000/svg">
<path d="M8.33333 0C3.73167 0 0 3.39048 0 7.57141V19.6857C0 23.8666 3.73167 27.2571 8.33333 27.2571H21.6667C26.2683 27.2571 30 23.8666 30 19.6857V7.57141C30 3.39048 26.2683 0 21.6667 0H8.33333ZM25 3.02856C25.92 3.02856 26.6667 3.70696 26.6667 4.54285C26.6667 5.37873 25.92 6.05713 25 6.05713C24.08 6.05713 23.3333 5.37873 23.3333 4.54285C23.3333 3.70696 24.08 3.02856 25 3.02856ZM15 6.05713C19.6017 6.05713 23.3333 9.44761 23.3333 13.6285C23.3333 17.8095 19.6017 21.2 15 21.2C10.3983 21.2 6.66667 17.8095 6.66667 13.6285C6.66667 9.44761 10.3983 6.05713 15 6.05713ZM15 9.08569C13.6739 9.08569 12.4021 9.56431 11.4645 10.4163C10.5268 11.2682 10 12.4237 10 13.6285C10 14.8334 10.5268 15.9889 11.4645 16.8408C12.4021 17.6928 13.6739 18.1714 15 18.1714C16.3261 18.1714 17.5979 17.6928 18.5355 16.8408C19.4732 15.9889 20 14.8334 20 13.6285C20 12.4237 19.4732 11.2682 18.5355 10.4163C17.5979 9.56431 16.3261 9.08569 15 9.08569Z" fill="black"/>
</svg>
