<svg width="30" height="28" viewBox="0 0 30 28" fill="none" xmlns="http://www.w3.org/2000/svg">
<path d="M26.6667 0H3.33333C1.49167 0 0 1.35528 0 3.02856V24.2285C0 25.9018 1.49167 27.2571 3.33333 27.2571H26.6667C28.5083 27.2571 30 25.9018 30 24.2285V3.02856C30 1.35528 28.5083 0 26.6667 0ZM23.4167 9.86403C23.4167 9.99426 23.4167 10.123 23.4167 10.3834C23.4167 15.3155 19.2733 21.0273 11.7017 21.0273C9.41667 21.0273 7.27333 20.3777 5.41667 19.3404C5.70167 19.3404 6.13167 19.3404 6.41667 19.3404C8.27333 19.3404 10.1317 18.6908 11.56 17.7822C9.70333 17.7822 8.275 16.6147 7.70333 15.1867C7.98833 15.1867 8.275 15.317 8.41833 15.317C8.84667 15.317 9.13333 15.317 9.56167 15.1867C7.705 14.7976 6.27667 13.3696 6.27667 11.5525C6.84833 11.8114 7.42 11.9416 8.13333 12.0719C6.99 11.1633 6.27667 10.1245 6.27667 8.82675C6.27667 8.17712 6.42 7.52901 6.84833 7.00961C8.84833 9.21592 11.8483 10.7741 15.2767 10.9028C15.2767 10.6439 15.1333 10.3834 15.1333 9.99426C15.1333 7.91818 16.99 6.22976 19.2767 6.22976C20.42 6.22976 21.5617 6.61893 22.2767 7.39727C23.2767 7.26704 24.1333 6.87787 24.8483 6.4887C24.5633 7.39727 23.8483 8.0469 22.9917 8.56478C23.8483 8.43455 24.5633 8.30584 25.42 7.91515C24.845 8.69652 24.1317 9.34464 23.4167 9.86403Z" fill="black"/>
</svg>
